<svg width="64" height="64" viewBox="0 0 64 64" fill="none" xmlns="http://www.w3.org/2000/svg">
<path d="M52 48.01H12C10.9395 48.0089 9.92266 47.5872 9.17274 46.8373C8.42283 46.0873 8.00106 45.0705 8 44.01V16.01C8.00106 14.9495 8.42283 13.9327 9.17274 13.1828C9.92266 12.4328 10.9395 12.0111 12 12.01H52C53.0605 12.0111 54.0773 12.4328 54.8273 13.1828C55.5772 13.9327 55.9989 14.9495 56 16.01V44.01C55.9984 45.0704 55.5765 46.0869 54.8267 46.8367C54.0769 47.5865 53.0604 48.0084 52 48.01ZM12 16.01V44.01H52V16.01H12ZM4 52.01H60V56.01H4V52.01Z" fill="#E6EEEF"/>
</svg>
