<svg width="64" height="64" viewBox="0 0 64 64" fill="none" xmlns="http://www.w3.org/2000/svg">
<path d="M52 60H22C20.9395 59.9989 19.9227 59.5772 19.1727 58.8273C18.4228 58.0773 18.0011 57.0605 18 56V44H22V56H52V12H34V8H52C53.0605 8.00106 54.0773 8.42283 54.8273 9.17274C55.5772 9.92266 55.9989 10.9395 56 12V56C55.9989 57.0605 55.5772 58.0773 54.8273 58.8273C54.0773 59.5772 53.0605 59.9989 52 60Z" fill="#E6EEEF"/>
<path d="M34 20H48V24H34V20ZM32 30H48V34H32V30ZM30 40H48V44H30V40ZM18 38C15.3486 37.9974 12.8066 36.9429 10.9319 35.0681C9.05707 33.1934 8.00265 30.6514 8 28V6H12V28C12 29.5913 12.6321 31.1174 13.7574 32.2426C14.8826 33.3679 16.4087 34 18 34C19.5913 34 21.1174 33.3679 22.2426 32.2426C23.3679 31.1174 24 29.5913 24 28V10C24 9.46957 23.7893 8.96086 23.4142 8.58579C23.0391 8.21071 22.5304 8 22 8C21.4696 8 20.9609 8.21071 20.5858 8.58579C20.2107 8.96086 20 9.46957 20 10V30H16V10C16 8.4087 16.6321 6.88258 17.7574 5.75736C18.8826 4.63214 20.4087 4 22 4C23.5913 4 25.1174 4.63214 26.2426 5.75736C27.3679 6.88258 28 8.4087 28 10V28C27.9974 30.6514 26.9429 33.1934 25.0681 35.0681C23.1934 36.9429 20.6514 37.9974 18 38Z" fill="#E6EEEF"/>
</svg>
