<svg width="64" height="64" viewBox="0 0 64 64" fill="none" xmlns="http://www.w3.org/2000/svg">
<path d="M60 48H52V40H48V48H40V52H48V60H52V52H60V48Z" fill="#E6EEEF"/>
<path d="M32 55.9999H16V7.99995H32V19.9999C32.0032 21.0598 32.4256 22.0754 33.1751 22.8249C33.9245 23.5743 34.9401 23.9968 36 23.9999H48V31.9999H52V19.9999C52.0071 19.7371 51.9571 19.4758 51.8535 19.2342C51.7499 18.9925 51.5952 18.7761 51.4 18.5999L37.4 4.59995C37.2239 4.40464 37.0076 4.24985 36.7659 4.14626C36.5242 4.04268 36.2629 3.99276 36 3.99995H16C14.9401 4.00311 13.9245 4.42556 13.1751 5.17502C12.4256 5.92448 12.0032 6.94006 12 7.99995V55.9999C12.0032 57.0598 12.4256 58.0754 13.1751 58.8249C13.9245 59.5743 14.9401 59.9968 16 59.9999H32V55.9999ZM36 8.79995L47.2 19.9999H36V8.79995Z" fill="#E6EEEF"/>
</svg>
